<?xml version="1.0" encoding="UTF-8"?>
<svg version="1.1" viewBox="0 0 2048 2048" width="512" height="512" xmlns="http://www.w3.org/2000/svg">
<path transform="translate(0)" d="m0 0h2048v2048h-2048z" fill="#FCE152"/>
<path transform="translate(0)" d="m0 0h2048v2048h-2048zm334 259v1541l1 19 1 1h1321l1-5v-192l1-96 6-7-6 3v-86l5-2 9-8v-2l4-2 15-14 8-7 12-10 5-5 10-9 5-4v-2l4-2 10-9 8-7 6-5 5-5 12-11 5-4 1-3 1-620v-218l-26-1h-84l-22-1 6-2v-224l-3-1h-51l-10 29-1 7 7 12 1 3v9l-6 12-9 7-11 2-8-2-10-6-5-9-1-3v-12l5-8v-2l4-2-1-13-3-23-1-1h-71l-4 9-6 20v5l8 9 3 6v11l-4 9-5 6-9 5h-14l-9-5-6-7-3-7v-11l5-10 8-7 2-1-1-5-10-27h-60l-8 24-5 16 1 5 2 6v9l-6 12-7 6-4 2h-15l-10-6-6-8-2-6v-10l5-10 8-8-1-6-8-21-2-5h-77v7l6 16 1 7-5 2-1 3 8 14v11l-4 9-6 7-7 4h-14l-10-5-6-7-3-9v-9l5-10 7-7-7-25-3-8h-59l-3 8-9 30v6l3 5v11l-3 8-7 8-8 4h-13l-10-5-6-7-3-9v-7l3-8 6-8 2-2-1-10-5-24h-65l-3 9-7 27 1 7 3 6v12l-4 9-2 4-12 6h-13l-10-5-6-8-2-5v-13l5-10 10-9v-7l-7-22-1-1h-72l-5 10-8 21 1 4 7 7 4 10-2 13-5 7v2l-4 2-7 4h-14l-10-5-5-6-3-8v-12l4-8 5-6 5-3-1-10-5-22h-83l-1 2 4 18v5l-5 6 3 6 6 9 1 2v13l-3 7-4 6-8 5-3 1h-13l-8-4-5-4-4-8-1-3v-12l4-8 5-6v-11l-3-23-1-1h-77l-2 6-4 22v5l7 8 4 7 1 8-2 9-6 9-10 6h-14l-8-4-5-4-4-8-1-3v-12l7-11 3-4-1-7-9-26-1-1h-69l-3 9-3 17v9l7 8 3 7v9l-4 10-4 5-7 5-3 1h-13l-12-6-6-10-1-4v-10l5-10 7-7-1-5-4-6-1-3-1-18-1-1h-72l-3 8-4 19v9l7 9 2 5v10l-6 12-9 7-3 1h-13l-10-5-6-7-3-9v-9l5-10 7-7-1-9-8-24z" fill="#FCFCFC"/>
<path transform="translate(334,259)" d="m0 0h61l3 9 6 19v5l-7 7-5 10v9l4 11 8 7 7 3h13l9-5 6-8 3-7v-10l-4-8-5-6v-9l5-23 2-4h72l1 1 1 18 4 8 2 3-1 4-8 9-3 7v10l4 10 5 5 10 5h13l7-4 5-5 5-8 1-4v-9l-4-8-6-7v-9l5-25 1-1h69l5 12 6 18-1 6-8 11-1 2v12l4 9 5 5 7 4 2 1h14l10-6 6-9 2-9-1-8-7-11-4-4 1-11 4-21 1-1h77l2 7 2 17v11l-8 11-1 3v12l4 9 5 5 6 4 3 1h13l8-4 5-5 4-6 1-4v-13l-6-10-4-6 3-5 2-2-1-10-3-14 1-1h83l5 22 1 10-8 6-5 8-1 3v12l4 9 4 5 10 5h14l8-5 3-1 6-12 1-10-4-10-8-8 1-5 10-26 2-3h72l4 10 4 13v7l-10 9-5 10v13l5 10 5 4 8 4h13l12-6 2-4 4-9v-12l-4-8 1-9 8-31 1-1h65l6 29v5l-7 8-3 6-1 4v7l3 9 6 7 10 5h13l8-4 7-8 3-8v-11l-3-5 1-9 10-34 1-1h59l7 21 3 12-7 7-5 10v9l3 9 6 7 10 5h14l9-6 4-5 4-9v-11l-6-11-2-4 4-4h2l-2-9-5-14v-7h77l5 12 6 16-1 5-7 7-5 10v10l4 9 5 6 9 5h15l9-6 4-5 4-9v-9l-3-7 1-7 10-32 2-5h60l11 29v3l-6 4-6 7-3 7v11l5 10 7 6 6 3h14l9-5 7-9 2-6v-11l-5-8-6-7 1-8 7-23 2-3h71l1 1 4 31v5l-4 2-5 10v12l4 9 5 5 9 5 8 1 9-2 9-7 6-12v-9l-5-10-3-5 2-9 9-27h51l3 2v223l-1 1-1132 1-13 1v1123h953l12-9 15-14 8-7 10-9 11-9 9-9 8-7 11-10 11-9 9-9 8-7 12-11 11-9 9-9 11-9 16-15 8-7 11-10 4-2v84l4-3 2 1-6 6-1 96v196l-1 1h-1321l-1-1-1-19z" fill="#714E9A"/>
<path transform="translate(525,485)" d="m0 0h1089l38 1 25 1h81l26 1v175l-7 1-1105-1-140-1-20-1v949h-1v-1123l1-1z" fill="#F5C61E"/>
<path transform="translate(1783,539)" d="m0 0h41l1 699v142l-14 12-13 12-11 9-7 7-8 7-13 12-8 7-20 18-12 11-11 9-15 14-11 9-3 3-1 28-1 116v201l-1 1h-1321l-1-1v-35l180-1h1123v-196l1-96 6-6-5 2-1-6v-76l1-4 6-4 7-6 5-5 15-14 8-7 11-9 5-5 4-2 2-4 8-7h2v-2l7-5 5-5 4-2 1-3 8-7 3-1 1-3 8-7 12-10 1-3 1-620z" fill="#CDCCCD"/>
<path transform="translate(1484,1326)" d="m0 0h294l3 1-1 4-14 12-5 4-5 5-7 6-5 5-10 9h-2v2l-11 9-5 5-10 9-12 11-8 7-11 10h-2l-1 3-8 7-5 2-2 4-8 7-30 27-11 9-9 9-11 9-7 7-8 7-12 11-10 9-11 9-8 8-8 7-12 11-11 9-7 7-8 7-11 10-4 3-5 1-2-16-5-87-5-74-3-54v-23l28-3h3l1-23z" fill="#F5C61E"/>
<path transform="translate(1591,1085)" d="m0 0h6l4 6v10l-12 6-43 14-54 16-50 14-42 11-52 13-51 12-52 11-44 9-54 10-65 11-45 7-58 8-67 8-69 7-60 5h-16l-4-5-1-6 2-6 7-2 134-13 61-7 59-8 59-9 75-13 90-18 67-15 69-17 57-15 42-12 54-16 49-15z" fill="#714E9A"/>
<path transform="translate(896,932)" d="m0 0 4 2 3 8 6 34 6 50 4 30 8 43 4 21v4l-6 3-7-1-9-7-7-7-8-7-43-43-7-8-9-9-7-8-10-11-8-10-12-13-9-11-2-4h-2l-3-6 4 38 7 64 2 23 1 26-3 5-5 2-5-1-1-4-5-75-6-67-1-25 1-2h6l6 4 12 11 20 20v2h2l7 8 17 17 7 8 37 37 7 8 12 12 10 13 1 2-1-9-6-26-7-41-5-29-10-47-2-11 1-6 6-5z" fill="#714E9A"/>
<path transform="translate(1334,920)" d="m0 0h12l9 3 6 5 3 6v10l-3 7-6 8-8 8-14 10-23 12-20 8-7 2-1 2v26l3 15 5 10 3 3v2l12 6 8 2h9l12-3 14-7 7-6 10-14 9-17 9-24 2-3h3l-1 11-7 24-5 12-8 13-7 9-7 8-14 9-11 4-5 1h-16l-12-3-11-6-9-9-6-13-3-11-1-8v-19l4-20 6-18 10-19 9-11 13-13 11-7 11-4z" fill="#714E9A"/>
<path transform="translate(682,486)" d="m0 0h970l25 1h81l26 1-1 61h-1v-58l1-2-107 2h-978l-40-1-10-1-44-1v-1z" fill="#FDE253"/>
<path transform="translate(1008,969)" d="m0 0 7 1-1 5-13 23-8 21-7 24-1 9v23l3 13 5 7 10 5 5 1h12l14-4 11-7 8-7 6-8 8-16 1-4v-16l-6-12-8-7-23-14-9-7-5-5 2-4 9-5 9-2 5 1-1 8 5 2 17 12 13 13 5 9 2 7v15l-4 15-8 16-7 9-9 10-11 8-13 6-12 3h-17l-10-3-9-6-7-8-5-13-2-13v-15l3-23 5-22 7-19 8-16 9-8z" fill="#704D9A"/>
<path transform="translate(1156,895)" d="m0 0 4 2 1 4v16l5 47 1 6 8-1 36-12 14-5 3-4 1-3 6-1 5 4 3 6v5l-9 6-17 6-41 12-7 1 9 60 5 24 5 15 3 7-1 7-5 3h-7l-4-6-7-26-5-26-5-35-2-18-25 7-21 7-10 3-7-1-5-5 1-5 13-4 25-7 22-7 4-1-1-14-4-28-1-21 2-11 4-5z" fill="#704D9A"/>
<path transform="translate(1477,903)" d="m0 0h11l2 2v8l-3 6-2 2h-6l-3-2-8 1-8 3-19 9-11 9-7 8-3 7v10l3 5 11 4 30 5 28 4 21 5 9 5 6 7 3 9v10l-5 14-9 12-8 8-13 9-14 7-17 5-7 1h-18l-5-3-2-3 1-5 6-8 7-7h4l-1 6-1 3 17-1 16-4 10-4 11-7 9-8 6-10v-12l-4-8-4-4-12-4-52-7-20-4-10-4-8-7-3-7v-7l4-12 9-12h2l2-4 5-4h2v-2l15-10 16-8 13-5z" fill="#6F4C9A"/>
<path transform="translate(1658,294)" d="m0 0 1 2h16l2 1v191l-63-2v-1l43-1z" fill="#CDCCCD"/>
<path transform="translate(778,971)" d="m0 0 5 5 2 1v2l4-1 4 3v2l4 2v2l3 1 2 5h2l2 5 7 8 6 5 7 8 9 10 1 3 4 2 3 3v2h2l3 4v2l4 2 1 3-4 1-8-8-7-8-14-14-7-8-9-10-9-9-3-2v-2l-5-2h-2l-3-6 4 38 7 64 2 23 1 26-3 5-5 2-5-1-1-4-5-75-6-67v-11l1-6z" fill="#72509B"/>
<path transform="translate(1334,920)" d="m0 0h12l9 3 6 5 3 6v10l-3 7-6 8-8 8-14 10-23 12-20 8h-6l2-2-2-6 26-11 12-6 16-11 12-12 2-5-1-6-10-5-3-1h-7l-12 4-13 10-11 14-7 14-1 3-3-1-3-3-3 5-4 16h-2l-1 4h-2l1-8 5-15 10-19 9-11 13-13 11-7 11-4z" fill="#4F2B97"/>
<path transform="translate(1331,931)" d="m0 0h7l10 4 5 5-1 7-7 8-8 8-17 11-14 7-23 9 1-7 6-16 7-11 9-11 10-8 8-4z" fill="#FCE050"/>
<path transform="translate(1477,903)" d="m0 0h11l2 2v8l-3 6-2 2h-6l-3-2-8 1-8 3-19 9-11 9-7 8-3 7v10l3 5 11 4 42 7v1h-9l-30-4-14-5-5-4-2-4-1-7 3-8 3-1-1-2-7 4-1 3h-2l1 3-3 2-2 3 1-9 4-8 7-9h2l2-4 5-4h2v-2l15-10 16-8 13-5z" fill="#6E4B9A"/>
<path transform="translate(980,294)" d="m0 0 16 1 3 1 5 10 3 10v9l-7 8-6 5 1 2-7-1-9-5-6-8-2-5v-13l5-10z" fill="#CDCDCE"/>
<path transform="translate(865,293)" d="m0 0 1 2h17l2 2 5 23v7l-4 5-8 6 1 2-8-1-9-6-4-5-3-8v-12l4-8z" fill="#CDCDCE"/>
<path transform="translate(1512,1039)" d="m0 0 4 2-2 4-5 5-9 8 1 2-11 6-11 5-14 4-7 1h-18l-5-3-2-3 1-5 6-8 7-7h4l-1 6-1 3 17-1 16-4 5-2 6-1 11-6 5-4h3z" fill="#714E9A"/>
<path transform="translate(1445,293)" d="m0 0 1 2h10l4 4 8 19 1 3v7l-11 10v2l-7-1-8-5-6-7-3-7v-11l5-10z" fill="#CDCDCE"/>
<path transform="translate(1329,293)" d="m0 0 11 3 7 14 5 13v6l-8 7-2 4-7-1-9-6-6-8-2-6v-10l5-10z" fill="#CDCDCE"/>
<path transform="translate(749,286)" d="m0 0h1l1 8 13 1 2 1 2 13 1 12v10l-6 8v1l-8-1-10-7-4-6-2-6v-12l4-8 5-6z" fill="#CDCDCE"/>
<path transform="translate(1098,290)" d="m0 0h1v5h11l2 1 5 23 1 9-3 6-4 4-8 1-9-6-6-8-2-7v-7l3-8 6-8z" fill="#CDCDCE"/>
<path transform="translate(401,294)" d="m0 0 12 1 2 1 7 20 2 6v7l-4 5-5 4-7 1-8-5-6-7-3-9v-9l5-10z" fill="#CDCDCE"/>
<path transform="translate(1214,292)" d="m0 0 1 2 10 2 8 24 1 10-7 8-8 1-9-6-6-8-2-7v-9l5-10z" fill="#CDCDCE"/>
<path transform="translate(518,293)" d="m0 0 1 2h13l1 1 1 18 5 10v7l-8 7-7 1-10-6-6-10-1-4v-10l5-10z" fill="#CDCDCE"/>
<path transform="translate(1560,293)" d="m0 0 1 3 14-1 1 1 3 24v14l-1 3h-2v2l-7 1-9-5-5-5-4-7-1-3v-12l6-10 3-2z" fill="#CDCDCE"/>
<path transform="translate(634,290)" d="m0 0 2 3v2h5l3 3 7 18 3 10-1 6-6 7v1l-7-1-9-5-5-6-3-8v-12l7-11 3-4z" fill="#CDCDCE"/>
<path transform="translate(780,982)" d="m0 0 2 3 3 23 5 48 5 51 1 26-3 5-5 2-5-1-1-4-2-33v-22l2-1 2 17 3 31 1 5 3 1-2-12-2-33-3-34-4-47z" fill="#502C97"/>
<path transform="translate(1353,923)" d="m0 0 5 2 5 6 1 3v10l-3 7-6 8-8 8-14 10-23 12-20 8h-6l2-2-2-6 26-11 12-6 16-11 12-12 1-2h2l1-5h3l2-7-4-5-3-6z" fill="#502C97"/>
<path transform="translate(896,932)" d="m0 0 4 2 3 8 6 34 6 50 4 30 8 43 2 9v14h-2l-3-10-3-17-4-17-3-18-3-19-3-25v-13l-2-10-2-15-2-9-3-19-2-4v-8l-5 2-2 3h-3v7h-2l-1-9 5-6z" fill="#512D97"/>
<path transform="translate(771,966)" d="m0 0h6l6 4 12 11 20 20v2h2l7 8 17 17 7 8 37 37 7 8 12 12 10 13v2l-4-2-1-3-4-2-10-9-12-13-25-25-6-5-7-8v-2h-2l-5-6-5-5-14-15v-2l-4-2v-2l-4-2-7-8v-4h-2l-3-5-6-5-4-4h-4v-2l-5-2-2-3-4 4h-2v6h-1l-1-5v-9z" fill="#4F2B97"/>
<path transform="translate(1656,1442)" d="m0 0h1v5h-6v2l-3 3-4 3-8 7-9 8-1 2h-2v2h-2l-3 6h-2v2l-6 5h-2l-1 3-5 4-9 6-4 4h-2v2h-2v2h-2l-2 4-5 6-6 5h-2l-2 4h-2v2l-6 4h-3v2l-6 5h-2l-2 4-3 4h-2v2h-2v2h-2v2l-8 7-4 2v2l-8 4-3 3h-2l-2 4h-2v2h-2v2h-2l-2 4-3 3h-2l-2 4h-2v2l-4 2h-3v2l-9 7-6 5h-2v-2l9-7 13-12 10-9 14-12 13-12 12-11 14-12 13-12 12-11 8-7 10-9 8-7 12-11 8-7 20-18 8-7z" fill="#512D97"/>
<path transform="translate(787,987)" d="m0 0 5 3 20 20 7 8 9 10 8 8v2l4 2 9 10 3 3 2 4 7 6 4 5v2h3l1 4 3 1-1 3h2v2h2v2h2l2 4 4 2v2l4 2v2l4 2v2h2l-1 3-4-2-37-37-7-8-9-9-7-8-10-11-8-10-12-13-9-11-2-2z" fill="#4F2B97"/>
<path transform="translate(1477,983)" d="m0 0h10l23 5 12 6 6 7 3 9v10l-5 14-9 12-8 8-7 5-3-1 11-10 5-5-1-3-2-1v2l-7 4-10 6-5 2v-2l13-8 9-8 6-10v-12l-4-8-4-4-14-5v-1l9 1 12 6 3 6 2 12 2 1v-15l-8-12-2-1v-2l-11-2-19-4-7-1z" fill="#512D97"/>
<path transform="translate(1385,991)" d="m0 0h3l-1 11-7 24-5 12-8 13-5 5h-2-3l2-3-2-1v2l-5 1-9 6v-3l11-8 10-13 10-19 9-24z" fill="#502C97"/>
<path transform="translate(1059 1e3)" d="m0 0 4 1 13 13 5 9 2 7v15l-4 15-8 16-7 9-9 10-8 6h-3l1-4 2-3 10-5 2-4h2l-1-3 2-3h2l2-5 3-8 5-12 2-9 1-12-3-12-6-8h2l-3-3-2-4-6-5z" fill="#502C97"/>
<path transform="translate(1438,921)" d="m0 0 3 1-6 4-4 2-1 3-2 1-1 4 4 1 3-1-2-3 1-4h3l2 2 7-4 3 1-11 7-12 11-5 10v10l3 5 11 4 42 7v1h-9l-30-4-14-5-5-4-2-4-1-7 3-8 3-1-1-2-7 4-1 3h-2l1 3-3 2-2 3 1-9 4-8 7-9h2l2-4 5-4h2v-2z" fill="#4F2C97"/>
<path transform="translate(950,1226)" d="m0 0h9v2l-20 2-13 2-48 5-44 4-34 3-30 4-4 1-2 7-2-4 2-6 7-2 134-13z" fill="#563298"/>
<path transform="translate(896,932)" d="m0 0 4 2 3 8 6 34 3 24v8l-1-3h-2l-2-5-2-11-1-14-3-11-2-14-2-4v-8l-5 2-2 3h-3v7h-2l-1-9 5-6z" fill="#4E2A97"/>
<path transform="translate(1008,969)" d="m0 0 7 1-1 5-10 18h-3l2-6 1-7 3-4-6 1-7 8-9 19-2 7h-2l-1 9-3 9h-2v-8l7-21 7-16 6-8 6-5z" fill="#502C97"/>
<path transform="translate(1064,1027)" d="m0 0h3l4 6 1 18-3 12v3l-1 4-5 8h-2l-1 4-7 7-6 4-14 7-5 2h-5l2-2 10-4 10-6 8-7 6-8 8-16 1-4v-16l-4-9z" fill="#4F2B97"/>
<path transform="translate(1352,922)" d="m0 0 1 4 3 2 4 8-3 7-3-1-1 5-1-3-1-6-10-5-8-2-1-3 1-4z" fill="#714E9A"/>
<path transform="translate(1656,1442)" d="m0 0h1v5h-6v2l-3 3-4 3-8 7-9 8-1 2h-2v2h-2l-3 6h-2v2l-6 5h-2l-1 3-5 4-9 6-4 4-2-1 9-10 8-7 12-11 8-7 20-18 8-7z" fill="#512D97"/>
<path transform="translate(1661,1476)" d="m0 0h6l4 6-2 9v10h-3l-2 5-4-1v-28z" fill="#F5C61E"/>
<path transform="translate(902,1029)" d="m0 0h1l1 5 2 1 6 36 3 14 1 10 2 7-2 3-5-18-5-24-4-25z" fill="#512D97"/>
<path transform="translate(1059,1211)" d="m0 0h8l-1 2-20 3-32 5-24 3-22 3h-7l1-2 20-3 64-9z" fill="#522F97"/>
<path transform="translate(1156,895)" d="m0 0 4 2 1 4h-2v14h-2l-2-2-1-8-2-1-1 5h-1l-1 10v15h-2l-1-21 2-11 4-5z" fill="#4E2A97"/>
<path transform="translate(1591,1499)" d="m0 0m-2 1 2 1-3 5h-2v2h-2l-2 4-5 6-6 5h-2l-2 4h-2v2l-6 4h-3v2l-6 5-2-1 9-10 8-7 14-13 8-7z" fill="#502C97"/>
<path transform="translate(1225,1181)" d="m0 0h6l-2 2-16 3-28 6-27 5-14 3-4-1 2-2 63-12z" fill="#563298"/>
<path transform="translate(771,966)" d="m0 0h6l6 4 12 11 6 7-4-1-5-6-5-2h-2v-2l-5-2-2-3-4 4h-2v6h-1l-1-5v-9z" fill="#533097"/>
<path transform="translate(1513,1569)" d="m0 0m-1 1m-2 1h2l-1 4-3 1v2h-2v2h-2l-2 4-3 3h-2l-2 4h-2v2l-4 2h-3v2l-9 7-6 5h-2v-2l9-7 13-12 10-9z" fill="#502C97"/>
<path transform="translate(907,970)" d="m0 0h1l4 30v8l-1-3h-2l-2-5-2-11-1-12z" fill="#532F97"/>
<path transform="translate(1674,1491)" d="m0 0 3 1 1 17-3 4-2-1-1 1-3-1v-9h2l1-5z" fill="#F5C61E"/>
<path transform="translate(791,1242)" d="m0 0h13l-4 2-30 4-4 1-2 7-2-4 2-6 7-2z" fill="#522E97"/>
<path transform="translate(1231,944)" d="m0 0 6 1v5l-5 1-6 4-25 8-6 1 1-2 29-10 3-4 1-3z" fill="#532F97"/>
<path transform="translate(1064,1027)" d="m0 0h3l4 6 1 18-3 12-3 3-1-2 3-9v-16l-4-9z" fill="#512E97"/>
<path transform="translate(1419,966)" d="m0 0 4 5 11 4 42 7v1h-9l-30-4-14-5-5-4z" fill="#532F97"/>
<path transform="translate(950,1226)" d="m0 0h9v2l-20 2-13 2-9 1h-9l2-2 31-4z" fill="#553198"/>
<path transform="translate(1182,1077)" d="m0 0 2 1v2h3l4 10-1 7-8 2-4-1 2-2 5-2-2-12z" fill="#5A3698"/>
<path transform="translate(984,1040)" d="m0 0h1v12l-1 5-1 22h-2l-1-9v-15l3-13z" fill="#4D2997"/>
<path transform="translate(1479,903)" d="m0 0h9l2 2v8l-3 6-3-3v-6l-5-4z" fill="#512E97"/>
<path transform="translate(873,1080)" d="m0 0h2v2h2l2 4 4 2v2l4 2v2l4 2v2h2l-1 3-4-2-16-16z" fill="#543097"/>
<path transform="translate(1447,1050)" d="m0 0h4l-1 6-1 2-10 6h-3l2-5z" fill="#532F97"/>
<path transform="translate(1496,995)" d="m0 0 9 1 12 6 3 6 1 5v9l-2 1-2-13-5-8-10-4-6-2z" fill="#553198"/>
<path transform="translate(905,1231)" d="m0 0h5l-2 2-9 2-21 2h-8l-4-2z" fill="#553198"/>
<path transform="translate(1059,1211)" d="m0 0h8l-1 2-20 3-15 2-6-1v-1z" fill="#563298"/>
<path transform="translate(1656,1442)" d="m0 0h1v5h-6v2l-3 3-4 3-8 7-6 5-2-1 8-8 8-7 9-8z" fill="#553198"/>
<path transform="translate(837,1036)" d="m0 0h5l1 3h2l3 4v2l4 2 1 3-4 1-8-8-4-5z" fill="#957FAE"/>
<path transform="translate(893,933)" d="m0 0 2 1-1 5-4 4h-3v7h-2l-1-9 5-6z" fill="#512E97"/>
<path transform="translate(1591,1085)" d="m0 0h6l2 2-1 4-4-2-3-1-8 2-6 2h-5l1-2z" fill="#563398"/>
<path transform="translate(855,1236)" d="m0 0h15v2l-26 2h-6l2-2z" fill="#522F97"/>
<path transform="translate(911,1116)" d="m0 0 6 2h2l3 6v2l-6-1-6-5z" fill="#553198"/>
<path transform="translate(1445,927)" d="m0 0 3 1-11 7-8 6-2-2 5-3h2l-2-3 1-4h3l2 2z" fill="#553298"/>
<path transform="translate(1093,993)" d="m0 0h7l-2 3-5 3-1 3h-4l-1-6z" fill="#512D97"/>
<path transform="translate(1494,1586)" d="m0 0m-2 1 2 1-12 12-11 9h-2v-2l9-7 13-12z" fill="#593598"/>
<path transform="translate(1148,908)" d="m0 0h1v26h-2l-1-21z" fill="#573398"/>
<path transform="translate(1018,1217)" d="m0 0h9v2l-13 2h-7l1-2z" fill="#512D97"/>
<path transform="translate(1437,923)" d="m0 0m-1 1m-1 1m-1 1m-1 1v3l1 6-5 2-2-4v-3l3-1z" fill="#704D9A"/>
<path transform="translate(901,939)" d="m0 0 2 3 3 16-1 6h-1l-1-8 1-2h-2z" fill="#714E9A"/>
<path transform="translate(1084,1207)" d="m0 0h7l-1 2-21 3 2-3z" fill="#543097"/>
<path transform="translate(1131,1199)" d="m0 0h7l-1 2-17 3-3-1 2-2z" fill="#543198"/>
<path transform="translate(915,1230)" d="m0 0h12l-1 2-9 1h-9l2-2z" fill="#502C97"/>
<path transform="translate(1329,921)" d="m0 0 4 1-1 2-5 2-8 1-1-2z" fill="#6A479A"/>
<path transform="translate(1e3 1219)" d="m0 0 4 1-9 3h-8l-2-2z" fill="#553298"/>
<path transform="translate(1059,1211)" d="m0 0h8l-1 2-12 2h-5l3-3z" fill="#532F97"/>
<path transform="translate(780,982)" d="m0 0 2 3 1 13-2-1-1-3z" fill="#563298"/>
<path transform="translate(1432,985)" d="m0 0 7 1 10 2v1h-8l-9-2z" fill="#522E97"/>
<path transform="translate(1640,1455)" d="m0 0 2 1-8 8-4 3-2-1 8-8z" fill="#593598"/>
<path transform="translate(1438,921)" d="m0 0 3 1-6 4-4 2-1 3-4-1 3-1v-2z" fill="#543097"/>
<path transform="translate(877,1234)" d="m0 0h6l-2 2-3 1h-8l-4-2z" fill="#593698"/>
<path transform="translate(1108,1203)" d="m0 0h7l-1 2-11 2-4-1 3-2z" fill="#532F97"/>
<path transform="translate(1601,1490)" d="m0 0m-1 1m-1 1m-2 1 2 1-9 10-2-1z" fill="#532F97"/>
<path transform="translate(1182,1077)" d="m0 0 2 1v2h2v6l1 4h-2l-2-5z" fill="#4C2897"/>
<path transform="translate(910,991)" d="m0 0h1l1 17-2-3-1-8z" fill="#724F9B"/>
<path transform="translate(1419,966)" d="m0 0 4 5 7 3v1l-7-1-5-4z" fill="#5A3698"/>
</svg>
